<?xml version="1.0" standalone="no"?>
<!DOCTYPE svg PUBLIC "-//W3C//DTD SVG 20010904//EN"
 "http://www.w3.org/TR/2001/REC-SVG-20010904/DTD/svg10.dtd">
<svg version="1.0" xmlns="http://www.w3.org/2000/svg"
 width="800.000000pt" height="800.000000pt" viewBox="0 0 800.000000 800.000000"
 preserveAspectRatio="xMidYMid meet">

<g transform="translate(0.000000,800.000000) scale(0.100000,-0.100000)"
fill="#000000" stroke="none">
<path d="M3500 6540 c-324 -69 -540 -245 -665 -541 -73 -174 -96 -277 -102
-459 -4 -132 -2 -170 16 -258 12 -56 32 -130 45 -165 l23 -61 -44 -28 c-61
-39 -88 -99 -87 -193 2 -178 90 -325 223 -371 l36 -12 12 -98 c14 -107 41
-199 84 -286 30 -59 35 -78 21 -78 -5 0 -62 -29 -128 -63 -65 -35 -173 -92
-239 -127 -375 -196 -397 -210 -487 -309 -31 -34 -70 -88 -87 -120 -34 -65
-444 -1152 -467 -1240 -30 -117 -11 -272 48 -385 37 -70 162 -200 252 -261
l58 -40 1742 -3 c1277 -2 1752 0 1783 9 46 12 209 141 260 205 98 124 141 294
113 447 -15 81 -445 1221 -486 1289 -47 78 -115 151 -188 202 -33 24 -171 101
-306 171 -134 70 -276 144 -315 165 -38 20 -85 45 -103 54 l-33 17 20 32 c52
86 91 216 100 340 l6 78 55 19 c71 24 138 93 171 175 20 51 24 77 24 180 0
102 -3 126 -21 162 l-21 43 49 6 c64 9 73 26 49 95 -26 78 -96 213 -153 296
-27 40 -43 73 -36 73 7 0 46 -9 87 -19 116 -31 129 -16 102 115 -60 288 -236
495 -481 565 -25 7 -49 16 -54 20 -4 4 33 28 83 54 147 76 145 107 -6 155
-112 36 -257 60 -364 60 -89 0 -239 -24 -317 -51 -30 -10 -57 -17 -59 -15 -2
1 4 33 12 70 22 95 14 106 -73 105 -37 0 -105 -9 -152 -19z m135 -92 c-40
-173 -40 -173 -1 -187 15 -6 35 -1 68 15 26 13 86 36 135 50 77 24 106 27 238
28 153 1 342 -25 329 -45 -3 -5 -42 -28 -87 -51 -105 -52 -137 -75 -137 -97 0
-29 19 -38 120 -59 241 -50 368 -143 460 -337 38 -79 74 -195 62 -195 -4 0
-60 12 -125 27 -127 29 -149 26 -155 -16 -2 -14 12 -38 44 -74 62 -68 143
-193 194 -298 l41 -84 -98 -3 c-366 -12 -816 146 -1215 425 -57 40 -122 87
-146 105 -34 26 -46 30 -60 22 -9 -6 -105 -133 -212 -282 -107 -150 -198 -272
-201 -272 -6 0 -41 112 -60 195 -18 78 -15 286 4 388 47 236 149 434 294 567
112 102 335 197 471 199 39 1 42 -1 37 -21z m-206 -955 c190 -143 469 -287
699 -363 147 -48 282 -77 440 -94 113 -12 126 -16 153 -42 78 -75 74 -270 -8
-382 -30 -40 -91 -72 -137 -72 -19 0 -38 -5 -42 -12 -5 -7 -14 -67 -20 -134
-19 -184 -69 -307 -176 -436 -138 -166 -377 -269 -591 -255 -109 7 -118 9
-218 42 -279 93 -488 385 -489 683 0 32 -3 67 -6 80 -6 22 -13 25 -89 37 -84
14 -162 136 -172 270 -7 92 29 143 118 169 9 2 110 135 225 294 115 159 213
287 218 284 5 -3 48 -34 95 -69z m-104 -1745 c338 -216 762 -170 1044 112 l63
64 92 -47 c114 -59 314 -164 471 -246 66 -35 143 -78 170 -96 65 -41 146 -130
190 -210 20 -34 101 -238 181 -451 79 -214 174 -466 209 -561 73 -195 90 -270
80 -357 -18 -153 -81 -249 -251 -379 l-60 -47 -147 0 -147 0 0 308 1 307 111
65 c61 36 117 71 124 78 21 20 17 50 -11 68 -23 15 -27 14 -122 -45 l-98 -60
-5 437 c-4 312 -9 445 -17 465 -22 49 -57 88 -103 115 l-45 27 -1249 3 c-1379
3 -1318 5 -1385 -60 -72 -71 -70 -56 -71 -547 -1 -243 -4 -441 -7 -441 -3 0
-44 24 -91 53 -108 66 -115 69 -141 51 -48 -34 -26 -60 134 -154 50 -30 93
-58 97 -64 10 -14 10 -240 1 -448 l-6 -158 -139 0 c-86 0 -148 4 -161 11 -41
22 -182 138 -210 174 -16 20 -43 66 -60 103 -31 64 -32 72 -32 187 l1 120 221
588 c178 472 230 601 267 656 77 116 130 155 391 292 88 46 239 125 335 175
l175 91 65 -67 c36 -37 97 -88 135 -112z m1729 -561 c39 -22 68 -67 43 -67
-15 -1 -94 -116 -110 -161 -7 -19 -15 -39 -19 -45 -15 -23 -40 -158 -34 -188
3 -17 3 -26 -2 -19 -4 6 -5 -178 -4 -409 2 -232 1 -435 -2 -453 -4 -18 -22
-50 -40 -71 l-34 -39 -978 -5 c-966 -6 -980 -6 -1047 -27 -83 -27 -147 -54
-147 -64 0 -4 6 -10 13 -12 6 -3 -2 -3 -19 0 -20 3 -35 0 -39 -8 -6 -8 -4 -10
5 -4 8 5 11 4 6 -3 -4 -6 -12 -9 -19 -6 -7 2 -35 -11 -62 -31 -30 -21 -43 -35
-32 -35 9 0 17 5 17 10 0 6 12 9 28 9 l27 -2 -25 -6 c-14 -3 553 -8 1260 -11
l1285 -5 -1342 -3 -1342 -2 -6 53 c-3 28 -5 385 -3 792 l3 740 24 34 c46 64
-32 60 1321 60 l1235 1 39 -23z m66 -848 c0 -412 -3 -749 -7 -749 -5 0 -8 339
-8 754 0 415 3 752 8 749 4 -2 7 -341 7 -754z m-30 731 c0 -5 -5 -10 -11 -10
-5 0 -7 5 -4 10 3 6 8 10 11 10 2 0 4 -4 4 -10z m-50 -59 c0 -5 -9 -19 -20
-32 l-20 -24 17 32 c19 34 23 39 23 24z m-195 -1301 c-3 -5 -16 -10 -28 -10
-18 0 -19 2 -7 10 20 13 43 13 35 0z m-1888 -6 c-3 -3 -12 -4 -19 -1 -8 3 -5
6 6 6 11 1 17 -2 13 -5z m1341 -1 c-236 -2 -620 -2 -855 0 -236 1 -43 2 427 2
470 0 663 -1 428 -2z m194 -130 c-347 -2 -917 -2 -1265 0 -347 1 -63 2 633 2
696 0 980 -1 632 -2z m-49 -20 c-331 -2 -875 -2 -1210 0 -334 1 -63 2 602 2
666 0 939 -1 608 -2z"/>
<path d="M3718 4993 l-688 -3 -6 -24 c-7 -30 69 -275 97 -310 40 -51 64 -56
256 -56 251 0 261 7 314 198 l31 112 57 0 57 0 33 -109 c60 -198 65 -201 316
-201 256 0 257 1 320 227 44 157 43 162 -46 167 -30 1 -363 1 -741 -1z m-88
-91 c0 -5 -7 -28 -15 -53 -7 -24 -19 -63 -25 -86 -18 -72 -20 -73 -214 -73
-127 0 -176 3 -183 13 -8 10 -30 73 -68 195 -4 9 51 12 250 12 140 0 255 -4
255 -8z m800 -9 c-1 -30 -45 -170 -59 -187 -20 -24 -352 -24 -372 0 -11 14
-69 177 -69 197 0 4 113 7 250 7 232 0 250 -1 250 -17z"/>
<path d="M5486 5574 c-9 -8 -16 -23 -16 -32 0 -10 54 -71 120 -137 l120 -119
-125 -127 c-69 -69 -125 -132 -125 -140 0 -21 21 -39 45 -39 22 0 297 270 309
303 4 14 -28 52 -139 163 -80 79 -152 144 -160 144 -7 0 -21 -7 -29 -16z"/>
<path d="M5982 5074 c-26 -18 -28 -37 -6 -58 13 -14 52 -16 273 -16 186 0 260
3 269 12 18 18 14 56 -7 68 -12 6 -114 10 -263 10 -204 0 -247 -3 -266 -16z"/>
<path d="M5110 4660 c-19 -19 -20 -34 -20 -234 0 -182 2 -217 16 -230 18 -19
45 -21 62 -4 13 13 17 445 4 464 -15 22 -42 24 -62 4z"/>
<path d="M5405 4665 c-80 -29 -105 -86 -105 -245 0 -90 3 -112 23 -150 32 -63
66 -85 135 -85 64 0 112 26 137 75 17 33 23 280 7 321 -12 31 -77 89 -100 89
-9 0 -26 2 -37 5 -11 3 -38 -2 -60 -10z m100 -100 c23 -23 25 -31 25 -130 0
-101 -8 -140 -34 -157 -21 -14 -66 -8 -86 12 -18 18 -20 33 -20 135 0 110 1
117 25 140 31 32 59 32 90 0z"/>
<path d="M5757 4667 c-16 -11 -17 -35 -15 -241 3 -205 5 -230 21 -240 12 -8
22 -8 35 0 15 10 17 35 20 240 2 206 1 230 -15 241 -9 7 -20 13 -23 13 -3 0
-14 -6 -23 -13z"/>
<path d="M6056 4670 c-16 -5 -40 -19 -53 -32 -47 -44 -53 -68 -53 -216 0 -128
2 -142 23 -172 63 -93 190 -91 261 4 19 25 21 42 21 169 0 124 -3 146 -20 175
-35 59 -115 91 -179 72z m89 -105 c24 -23 25 -30 25 -140 0 -102 -2 -117 -20
-135 -29 -29 -74 -26 -99 6 -18 23 -21 41 -21 136 0 102 1 110 25 133 31 32
59 32 90 0z"/>
<path d="M5487 3978 c-15 -12 -17 -38 -17 -237 -1 -229 3 -251 39 -251 38 0
41 17 41 252 0 214 -1 228 -19 238 -24 13 -24 13 -44 -2z"/>
<path d="M5760 3978 c-19 -5 -46 -19 -58 -31 -46 -42 -52 -68 -52 -214 0 -130
1 -140 24 -174 47 -68 143 -90 206 -46 68 45 75 64 78 210 3 122 1 136 -20
177 -35 68 -106 99 -178 78z m84 -99 c25 -20 26 -23 26 -140 0 -106 -2 -121
-20 -139 -29 -29 -74 -26 -100 7 -20 25 -21 37 -18 141 3 106 5 115 27 133 30
24 52 24 85 -2z"/>
<path d="M6157 3976 c-89 -32 -110 -84 -105 -259 3 -109 6 -129 24 -154 54
-73 134 -92 208 -50 65 37 76 70 76 228 0 125 -2 139 -23 169 -41 62 -115 89
-180 66z m94 -95 c22 -18 24 -27 27 -133 3 -104 2 -116 -18 -141 -16 -20 -30
-27 -55 -27 -55 0 -65 25 -65 161 0 115 1 118 26 138 33 26 55 26 85 2z"/>
<path d="M6477 3977 c-16 -11 -17 -35 -15 -241 3 -205 5 -230 21 -240 12 -8
22 -8 35 0 15 10 17 35 20 240 2 206 1 230 -15 241 -9 7 -20 13 -23 13 -3 0
-14 -6 -23 -13z"/>
</g>
</svg>
